# xmcd CD database file generated by Grip 2.94
# 
# Track frame offsets:
#       150
#       11767
#       23447
#       36218
#       48963
#       59624
#       70593
#       85834
#       97397
#       109384
#       120803
#       133616
#       146991
#       155786
#       167529
#       183156
#       194741
#       208976
#       220798
#       235990
# 
# Disc length: 3313 seconds
# 
# Revision: 3
# Processed by: cddbd v1.4b41PL1 Copyright (c) Steve Scherf et al.
# Submitted via: Grip 2.94
# 
DISCID=260cef14
DTITLE=Sonny Boy Williamson - His Best
DYEAR=1900
DGENRE=
TTITLE0=Good Evening Everybody
TTITLE1=Don't Start Me To Talkin'
TTITLE2=All My Love In Vain
TTITLE3=Keep It To Yourself
TTITLE4=Fattening Frogs For Snakes
TTITLE5=I Don't Know
TTITLE6=Cross My Heart
TTITLE7=Born Blind
TTITLE8=Ninety Nine
TTITLE9=Your Funeral And My Trial
TTITLE10=Keep Your Hands Out Of My Pocket
TTITLE11=Sad To Be Alone
TTITLE12=Checkin' Up On My Baby
TTITLE13=Down Child
TTITLE14=Nine Below Zero
TTITLE15=Bye Bye bird
TTITLE16=Help Me
TTITLE17=Bring It On Home
TTITLE18=My Younger Days
TTITLE19=One Way out
EXTD=
EXTT0=
EXTT1=
EXTT2=
EXTT3=
EXTT4=
EXTT5=
EXTT6=
EXTT7=
EXTT8=
EXTT9=
EXTT10=
EXTT11=
EXTT12=
EXTT13=
EXTT14=
EXTT15=
EXTT16=
EXTT17=
EXTT18=
EXTT19=
PLAYORDER=
